<svg width="399" height="119" viewBox="0 0 399 119" fill="none" xmlns="http://www.w3.org/2000/svg">
<path d="M51.748 98.3421C40.9418 95.4398 32.0451 88.7588 31.6048 77.0633C31.1646 65.3678 40.4178 55.5499 54.1572 56.7877L54.1572 52.8935C54.1625 50.8932 56.628 50.166 58.1389 51.4401L72.6038 63.2204C73.6737 64.1246 73.671 65.782 72.5943 66.7353L58.1389 78.7259C56.6205 80.076 54.1518 79.0636 54.1572 77.0633L54.1572 73.0889C52.7096 72.8641 51.607 72.8017 50.8272 72.8641C38.3133 73.865 39.3677 95.006 60.9818 93.9076C70.2678 93.4357 85.3812 83.1199 86 67.1067C86 42.9693 56.0142 35.1189 63.5576 18.5726C64.3167 16.9075 61.2609 16.1561 59.3376 16.8877C51.6063 19.0175 43.0775 23.6961 38.2251 37.5867C37.6041 39.3644 36.8232 43.5627 36.1562 45.3105C35.5393 47.0643 34.6496 50.9922 32.1864 50.7839C28.9589 50.5109 30.0835 45.2396 30.7887 42.9693C31.383 41.0563 28.7338 39.4403 26.3067 41.9403C22.1861 46.1846 18.0666 51.8605 16.4753 60.718C15.8503 64.1936 15.8162 69.1094 16.5255 73.2326C19.6052 91.1954 35.2441 102.66 50.4607 102.481C54.2243 102.437 54.3266 99.0347 51.748 98.3421Z" fill="white"/>
<path d="M358.009 44.178L368.29 42.522V53.217H380.641V61.773H368.29V74.538C368.29 76.7 368.658 78.425 369.394 79.713C370.176 81.001 371.717 81.645 374.017 81.645C375.121 81.645 376.248 81.553 377.398 81.369C378.594 81.139 379.675 80.84 380.641 80.472L382.09 88.476C380.848 88.982 379.468 89.419 377.95 89.787C376.432 90.155 374.569 90.339 372.361 90.339C369.555 90.339 367.232 89.971 365.392 89.235C363.552 88.453 362.08 87.395 360.976 86.061C359.872 84.681 359.09 83.025 358.63 81.093C358.216 79.161 358.009 77.022 358.009 74.676V44.178Z" fill="white"/>
<path d="M318.404 71.64C318.404 68.42 318.887 65.614 319.853 63.222C320.865 60.784 322.176 58.76 323.786 57.15C325.396 55.54 327.236 54.321 329.306 53.493C331.422 52.665 333.584 52.251 335.792 52.251C340.944 52.251 345.015 53.838 348.005 57.012C350.995 60.14 352.49 64.763 352.49 70.881C352.49 71.479 352.467 72.146 352.421 72.882C352.375 73.572 352.329 74.193 352.283 74.745H328.961C329.191 76.861 330.18 78.54 331.928 79.782C333.676 81.024 336.022 81.645 338.966 81.645C340.852 81.645 342.692 81.484 344.486 81.162C346.326 80.794 347.821 80.357 348.971 79.851L350.351 88.2C349.799 88.476 349.063 88.752 348.143 89.028C347.223 89.304 346.188 89.534 345.038 89.718C343.934 89.948 342.738 90.132 341.45 90.27C340.162 90.408 338.874 90.477 337.586 90.477C334.32 90.477 331.468 89.994 329.03 89.028C326.638 88.062 324.637 86.751 323.027 85.095C321.463 83.393 320.29 81.392 319.508 79.092C318.772 76.792 318.404 74.308 318.404 71.64ZM342.554 67.707C342.508 66.833 342.347 65.982 342.071 65.154C341.841 64.326 341.45 63.59 340.898 62.946C340.392 62.302 339.725 61.773 338.897 61.359C338.115 60.945 337.126 60.738 335.93 60.738C334.78 60.738 333.791 60.945 332.963 61.359C332.135 61.727 331.445 62.233 330.893 62.877C330.341 63.521 329.904 64.28 329.582 65.154C329.306 65.982 329.099 66.833 328.961 67.707H342.554Z" fill="white"/>
<path d="M302.82 89.511C299.738 84.037 296.403 78.632 292.815 73.296C289.227 67.96 285.409 62.923 281.361 58.185V89.511H270.735V41.694H279.498C281.016 43.212 282.695 45.075 284.535 47.283C286.375 49.491 288.238 51.86 290.124 54.39C292.056 56.874 293.965 59.473 295.851 62.187C297.737 64.855 299.508 67.431 301.164 69.915V41.694H311.859V89.511H302.82Z" fill="white"/>
<path d="M241.111 44.178L251.392 42.522V53.217H263.743V61.773H251.392V74.538C251.392 76.7 251.76 78.425 252.496 79.713C253.278 81.001 254.819 81.645 257.119 81.645C258.223 81.645 259.35 81.553 260.5 81.369C261.696 81.139 262.777 80.84 263.743 80.472L265.192 88.476C263.95 88.982 262.57 89.419 261.052 89.787C259.534 90.155 257.671 90.339 255.463 90.339C252.657 90.339 250.334 89.971 248.494 89.235C246.654 88.453 245.182 87.395 244.078 86.061C242.974 84.681 242.192 83.025 241.732 81.093C241.318 79.161 241.111 77.022 241.111 74.676V44.178Z" fill="white"/>
<path d="M202.894 89.511V37.623L213.175 35.967V53.355C213.865 53.125 214.739 52.918 215.797 52.734C216.901 52.504 217.959 52.389 218.971 52.389C221.915 52.389 224.353 52.803 226.285 53.631C228.263 54.413 229.827 55.54 230.977 57.012C232.173 58.484 233.001 60.232 233.461 62.256C233.967 64.28 234.22 66.534 234.22 69.018V89.511H223.939V70.26C223.939 66.948 223.502 64.602 222.628 63.222C221.8 61.842 220.236 61.152 217.936 61.152C217.016 61.152 216.142 61.244 215.314 61.428C214.532 61.566 213.819 61.727 213.175 61.911V89.511H202.894Z" fill="white"/>
<path d="M172.758 70.191C172.758 75.941 175.081 78.816 179.727 78.816C180.785 78.816 181.774 78.678 182.694 78.402C183.614 78.126 184.396 77.804 185.04 77.436V61.014C184.534 60.922 183.936 60.853 183.246 60.807C182.556 60.715 181.751 60.669 180.831 60.669C178.117 60.669 176.093 61.566 174.759 63.36C173.425 65.154 172.758 67.431 172.758 70.191ZM195.321 84.957C195.321 90.891 193.803 95.284 190.767 98.136C187.777 101.034 183.131 102.483 176.829 102.483C174.621 102.483 172.413 102.276 170.205 101.862C167.997 101.494 165.95 100.988 164.064 100.344L165.858 91.719C167.468 92.363 169.147 92.869 170.895 93.237C172.689 93.605 174.713 93.789 176.967 93.789C179.911 93.789 181.981 93.145 183.177 91.857C184.419 90.569 185.04 88.913 185.04 86.889V85.578C183.936 86.084 182.786 86.475 181.59 86.751C180.44 86.981 179.175 87.096 177.795 87.096C172.781 87.096 168.94 85.624 166.272 82.68C163.604 79.69 162.27 75.527 162.27 70.191C162.27 67.523 162.684 65.108 163.512 62.946C164.34 60.738 165.536 58.852 167.1 57.288C168.71 55.724 170.665 54.528 172.965 53.7C175.265 52.826 177.864 52.389 180.762 52.389C182.004 52.389 183.269 52.458 184.557 52.596C185.891 52.688 187.202 52.826 188.49 53.01C189.778 53.194 190.997 53.424 192.147 53.7C193.343 53.93 194.401 54.183 195.321 54.459V84.957Z" fill="white"/>
<path d="M156.401 89.511H146.12V53.217H156.401V89.511ZM157.367 42.729C157.367 44.615 156.746 46.11 155.504 47.214C154.308 48.272 152.882 48.801 151.226 48.801C149.57 48.801 148.121 48.272 146.879 47.214C145.683 46.11 145.085 44.615 145.085 42.729C145.085 40.843 145.683 39.371 146.879 38.313C148.121 37.209 149.57 36.657 151.226 36.657C152.882 36.657 154.308 37.209 155.504 38.313C156.746 39.371 157.367 40.843 157.367 42.729Z" fill="white"/>
<path d="M141.947 80.265V89.511H110V41.694H120.764V80.265H141.947Z" fill="white"/>
</svg>
